<svg id="レイヤー_2" data-name="レイヤー 2" xmlns="http://www.w3.org/2000/svg" width="155.221" height="38.5" viewBox="0 0 155.221 38.5">
  <g id="レイヤー_1" data-name="レイヤー 1">
    <path id="パス_5" data-name="パス 5" d="M11.524,29.459a34.9,34.9,0,0,1-6.2-.623Q.542,27.951.542,26.419c0-.163.32-.483.955-.955a2.178,2.178,0,0,0,.961-1.828V5.532c0-.495-.419-.873-1.252-1.124S0,3.692,0,3.162c0-.39.256-.734.769-1.042A8.968,8.968,0,0,1,2.725,1.31,24.3,24.3,0,0,1,5.346.728C6.306.542,7.221.408,8.094.314S9.748.14,10.423.082,11.646,0,11.9,0a21.056,21.056,0,0,1,3.575.314,11.355,11.355,0,0,1,3.372,1.1,7.285,7.285,0,0,1,2.516,2.079,5.241,5.241,0,0,1,.978,3.249,4.851,4.851,0,0,1-.4,1.933,6.924,6.924,0,0,1-1.037,1.747,7.256,7.256,0,0,1-1.52,1.4,7.8,7.8,0,0,1-1.834.938v.495a19.752,19.752,0,0,1,2.271,1.165,8.781,8.781,0,0,1,1.933,1.52,7.273,7.273,0,0,1,1.351,2,5.916,5.916,0,0,1,.524,2.533,9.9,9.9,0,0,1-.815,4.228,6.877,6.877,0,0,1-2.329,2.789A10.528,10.528,0,0,1,16.7,29.022a24.818,24.818,0,0,1-5.177.437ZM10.447,13.521c0-.192.245-.46.745-.809a16.724,16.724,0,0,1,2-1.165A4.49,4.49,0,0,0,15.14,9.76a5.1,5.1,0,0,0,.582-2.481,5.747,5.747,0,0,0-.21-1.514,5.194,5.194,0,0,0-.582-1.4,3.29,3.29,0,0,0-1.042-1.019,2.871,2.871,0,0,0-1.52-.4,4.035,4.035,0,0,0-2.329.687,2.219,2.219,0,0,0-1,1.933V24.009a1.747,1.747,0,0,0,.332,1.1,2.533,2.533,0,0,0,.85.71,4.449,4.449,0,0,0,1.165.4,6.225,6.225,0,0,0,1.205.122,4.251,4.251,0,0,0,1.962-.437,3.925,3.925,0,0,0,1.374-1.165,5,5,0,0,0,.792-1.747,9.364,9.364,0,0,0,.245-2.184,5.823,5.823,0,0,0-.844-3.337,5.462,5.462,0,0,0-2.329-1.957q-1.7-.786-2.539-1.229C10.72,13.975,10.447,13.743,10.447,13.521Z" fill="#fff"/>
    <path id="パス_6" data-name="パス 6" d="M42.8,22.134a13.975,13.975,0,0,1,.751-4.658,10.616,10.616,0,0,1,2.184-3.7,10.126,10.126,0,0,1,3.535-2.417,12.135,12.135,0,0,1,4.81-.9,12.281,12.281,0,0,1,4.827.9,10.115,10.115,0,0,1,3.558,2.452,10.616,10.616,0,0,1,2.184,3.7,14.1,14.1,0,0,1,.745,4.658,14.2,14.2,0,0,1-.745,4.658,10.616,10.616,0,0,1-2.184,3.7,10.126,10.126,0,0,1-3.558,2.457,12.386,12.386,0,0,1-4.827.891,12.229,12.229,0,0,1-4.81-.891,10.138,10.138,0,0,1-3.535-2.457,10.616,10.616,0,0,1-2.184-3.7A14.046,14.046,0,0,1,42.8,22.134Zm17.271-.082a18.454,18.454,0,0,0-.268-3.243,10.359,10.359,0,0,0-.978-2.912,5.9,5.9,0,0,0-1.852-2.125,4.909,4.909,0,0,0-2.871-.809,4.688,4.688,0,0,0-2.83.809A6.027,6.027,0,0,0,49.461,15.9a10.01,10.01,0,0,0-.978,2.912,18.453,18.453,0,0,0-.291,3.243,19.8,19.8,0,0,0,.291,3.372,10.045,10.045,0,0,0,.978,2.976,6.248,6.248,0,0,0,1.788,2.172,4.624,4.624,0,0,0,2.83.833,4.833,4.833,0,0,0,2.871-.833A6.039,6.039,0,0,0,58.8,28.405a10.639,10.639,0,0,0,1-3,18.867,18.867,0,0,0,.291-3.267Z" transform="translate(-17.876 -4.368)" fill="#fff"/>
    <path id="パス_7" data-name="パス 7" d="M83.46,22.136a13.975,13.975,0,0,1,.751-4.658,10.522,10.522,0,0,1,2.184-3.7,10.126,10.126,0,0,1,3.535-2.417,13.393,13.393,0,0,1,9.631,0,10.062,10.062,0,0,1,3.558,2.452,10.54,10.54,0,0,1,2.2,3.686,14.1,14.1,0,0,1,.745,4.658,14.2,14.2,0,0,1-.745,4.658,10.54,10.54,0,0,1-2.189,3.7,10.074,10.074,0,0,1-3.558,2.457,13.463,13.463,0,0,1-9.631,0,10.138,10.138,0,0,1-3.535-2.457,10.522,10.522,0,0,1-2.184-3.7,14.045,14.045,0,0,1-.763-4.676Zm17.271-.082a18.454,18.454,0,0,0-.291-3.243,10.359,10.359,0,0,0-.978-2.912,5.9,5.9,0,0,0-1.852-2.125,4.909,4.909,0,0,0-2.871-.809,4.688,4.688,0,0,0-2.813.786,5.969,5.969,0,0,0-1.811,2.125,10.01,10.01,0,0,0-.978,2.912,18.454,18.454,0,0,0-.291,3.243,19.8,19.8,0,0,0,.291,3.372,10.045,10.045,0,0,0,.978,2.976,6.184,6.184,0,0,0,1.811,2.2,4.623,4.623,0,0,0,2.83.833,4.833,4.833,0,0,0,2.853-.833,6.039,6.039,0,0,0,1.852-2.166,10.639,10.639,0,0,0,.978-2.976,18.865,18.865,0,0,0,.291-3.267Z" transform="translate(-34.86 -4.37)" fill="#fff"/>
    <path id="パス_8" data-name="パス 8" d="M125.313,33.554c-.582,0-.833-.3-.833-.914,0-.39.344-.681,1.037-.873a1.3,1.3,0,0,0,1.013-1.252V13.58a1.3,1.3,0,0,0-1-1.246c-.693-.192-1.037-.5-1.037-.914,0-.582.274-.873.833-.873h7.727c.582,0,.833.291.833.873,0,.384-.349.675-1.042.873A1.333,1.333,0,0,0,131.8,13.58V30.514a1.316,1.316,0,0,0,1.042,1.24c.693.192,1.042.483,1.042.873,0,.582-.28.914-.833.914Zm16.019,0a1.747,1.747,0,0,1-1.211-.413,22.505,22.505,0,0,1-2.492-3.133c-.332-.472-.792-1.165-1.374-1.98s-1.165-1.706-1.747-2.58-1.089-1.683-1.52-2.434a4.164,4.164,0,0,1-.635-1.526,2.283,2.283,0,0,1,.46-.809c.3-.431.687-.932,1.165-1.5s.949-1.165,1.479-1.811,1.013-1.24,1.456-1.805.809-1.066,1.106-1.479a2.114,2.114,0,0,0,.437-.833c0-.443-.309-.763-.92-.955s-.914-.582-.914-.92c0-.582.28-.873.833-.873h6.365c.582,0,.833.291.833.873-.25.28-.629.728-1.165,1.357s-1.048,1.211-1.6,1.747q-1.625,1.584-2.749,2.912a31.919,31.919,0,0,0-1.957,2.533q1.7,2.545,2.807,4.187c.74,1.095,1.368,2.032,1.9,2.807s.984,1.444,1.368,2,.792,1.165,1.211,1.747a3.191,3.191,0,0,0,1.578,1c.664.3,1,.623,1,.955a.8.8,0,0,1-.314.687,1.345,1.345,0,0,1-.809.227Z" transform="translate(-51.994 -4.386)" fill="#fff"/>
    <path id="パス_9" data-name="パス 9" d="M173.227,18.711a3.82,3.82,0,0,0,1.456.291,10.372,10.372,0,0,0,1.042-.064c.443-.041.8-.058,1.077-.058a3.086,3.086,0,0,1,1.479.309,1.205,1.205,0,0,1,.582,1.165,1.165,1.165,0,0,1-.582,1.124,3.628,3.628,0,0,1-1.584.291,10.469,10.469,0,0,1-1.456-.064l-.71-.064a2.964,2.964,0,0,0-.85.169c-.349.111-.518.4-.518.873v7.279c0,.582.116.92.349,1a4.117,4.117,0,0,0,1.019.169c.5,0,1.118.047,1.852.058s1.45,0,2.143,0a5.468,5.468,0,0,0,1.584-.314,3.453,3.453,0,0,0,1.275-.856c.413-.419.769-.751,1.06-1s.477-.373.582-.373a.978.978,0,0,1,.67.146.617.617,0,0,1,.291.582,2.329,2.329,0,0,1-.169.67c-.111.3-.25.641-.419,1.019s-.344.74-.536,1.1a5.174,5.174,0,0,1-.542.833,1.561,1.561,0,0,1-.769.46,3.546,3.546,0,0,1-.582.122h-14.36a.728.728,0,0,1-.623-.268,1.165,1.165,0,0,1-.21-.728.507.507,0,0,1,.332-.46c.221-.111.46-.221.71-.332a2.76,2.76,0,0,0,.7-.46,1.048,1.048,0,0,0,.332-.833V13.61a1.007,1.007,0,0,0-.332-.792,4.4,4.4,0,0,0-.7-.495l-.71-.4a.582.582,0,0,1-.332-.524c0-.582.274-.873.833-.873h13.6a1.566,1.566,0,0,1,.938.314,3.493,3.493,0,0,1,.792.809,4.879,4.879,0,0,1,.582,1.124,3.651,3.651,0,0,1,.227,1.252.81.81,0,0,1-.1.332.844.844,0,0,1-.268.332.984.984,0,0,1-.373.169.582.582,0,0,1-.46-.169c-.641-.5-1.165-.879-1.52-1.165a4.618,4.618,0,0,0-1.165-.582,5.584,5.584,0,0,0-1.479-.25c-.582-.029-1.339-.041-2.329-.041a2.469,2.469,0,0,0-1.561.332,1.205,1.205,0,0,0-.349.914v4.618a1.619,1.619,0,0,1,.082.192Z" transform="translate(-69.243 -4.398)" fill="#fff"/>
    <path id="パス_10" data-name="パス 10" d="M216.341,33.52q-1.281,0-4.577-4.746-3.162-4.7-3.162-6.2,0-.542,2.288-1.456A3.139,3.139,0,0,0,212.6,19.6a5.584,5.584,0,0,0,.542-2.562,5.742,5.742,0,0,0-.186-1.473,4.076,4.076,0,0,0-.582-1.31,3.267,3.267,0,0,0-1-.961,2.993,2.993,0,0,0-1.438-.413,4.164,4.164,0,0,0-1,.122,3.68,3.68,0,0,0-.938.378,2.172,2.172,0,0,0-.71.623,1.38,1.38,0,0,0-.268.833v15.6a1.316,1.316,0,0,0,1.037,1.281c.7.25,1.042.553,1.042.914,0,.582-.28.914-.833.914H200.4c-.582,0-.833-.3-.833-.914,0-.39.344-.681,1.036-.873a1.345,1.345,0,0,0,1.083-1.293V14.834q0-.542-1-.873c-.67-.2-1-.53-1-1,0-.274.221-.542.67-.792a7.174,7.174,0,0,1,1.683-.641c.681-.181,1.421-.344,2.224-.483s1.59-.256,2.329-.349,1.432-.169,2.021-.21.984-.064,1.205-.064a13.154,13.154,0,0,1,3.121.378,9.23,9.23,0,0,1,2.766,1.165,6.289,6.289,0,0,1,2,2,5.433,5.433,0,0,1,.769,2.912,4.658,4.658,0,0,1-.373,1.974,5.416,5.416,0,0,1-1.019,1.479,9.112,9.112,0,0,1-1.5,1.229q-.873.559-1.747,1.223a15.787,15.787,0,0,0,2.952,5.287,13.249,13.249,0,0,0,2.329,2.265c.8.582,1.543,1.165,2.207,1.607a.949.949,0,0,1,.46.582.676.676,0,0,1-.128.5,1.211,1.211,0,0,1-.478.373,1.333,1.333,0,0,1-.582.146Z" transform="translate(-83.358 -4.352)" fill="#fff"/>
    <path id="パス_11" data-name="パス 11" d="M247.3,33.521a5.205,5.205,0,0,1-1.019-.146l-1.351-.314c-.472-.111-.92-.2-1.333-.268a2.125,2.125,0,0,0-.873,0,1.5,1.5,0,0,0-.763.466.891.891,0,0,1-.687.373c-.332,0-.635-.233-.9-.7a7.047,7.047,0,0,1-.641-1.642,17.314,17.314,0,0,1-.4-1.834,8.808,8.808,0,0,1-.146-1.269.693.693,0,0,1,.146-.437,1.165,1.165,0,0,1,.349-.309.92.92,0,0,1,.4-.146.262.262,0,0,1,.274.1,8.478,8.478,0,0,0,2.679,2.376,7.454,7.454,0,0,0,3,1.007,4.006,4.006,0,0,0,2.492-.5,2.23,2.23,0,0,0,1.042-2.079,4.269,4.269,0,0,0-.332-1.747,4.566,4.566,0,0,0-.92-1.339A7.9,7.9,0,0,0,246.9,24c-.542-.332-1.118-.693-1.747-1.077A33.635,33.635,0,0,1,242.3,21.03a11.92,11.92,0,0,1-1.852-1.665,5.422,5.422,0,0,1-1.019-1.648,5.363,5.363,0,0,1-.314-1.91,5.142,5.142,0,0,1,.5-2.248,5.241,5.241,0,0,1,1.4-1.788,6.743,6.743,0,0,1,2.12-1.165,7.937,7.937,0,0,1,2.684-.437,6.574,6.574,0,0,1,.914.082l1.124.186,1.165.21c.373.07.7.116.972.146a.425.425,0,0,0,.338-.064,1.3,1.3,0,0,0,.309-.268c.1-.111.192-.215.291-.314a2.157,2.157,0,0,1,.274-.227c.3,0,.582.2.873.687a9.742,9.742,0,0,1,.728,1.642,16.756,16.756,0,0,1,.5,1.747,7.28,7.28,0,0,1,.186,1.1q0,.961-.873.961c-.472-.419-.932-.815-1.374-1.165a13.3,13.3,0,0,0-1.374-1.019,6.1,6.1,0,0,0-1.6-.751,4.874,4.874,0,0,0-1.788-.227,2.446,2.446,0,0,0-1.456.582,2.1,2.1,0,0,0-.582,1.683,1.607,1.607,0,0,0,.46,1.066,7.285,7.285,0,0,0,1.205,1.06c.5.361,1.054.728,1.665,1.1s1.165.745,1.747,1.106a18.631,18.631,0,0,1,2.038,1.514,13.391,13.391,0,0,1,1.788,1.852A9.119,9.119,0,0,1,254.62,25,6.12,6.12,0,0,1,255.1,27.4a5.363,5.363,0,0,1-2.079,4.618A9.357,9.357,0,0,1,247.3,33.521Z" transform="translate(-99.877 -4.143)" fill="#fff"/>
    <path id="パス_12" data-name="パス 12" d="M61,53.54s3.494,5.823,12.229,5.823c9.317,0,13.975-4.076,13.975-4.076l-.582,3.494" transform="translate(-25.479 -22.363)" fill="none" stroke="#fafafa" stroke-miterlimit="10" stroke-width="3"/>
    <path id="パス_14" data-name="パス 14" d="M2.329,0C3.616,0,4.658,1.955,4.658,4.367S3.616,8.735,2.329,8.735,0,6.779,0,4.367,1.043,0,2.329,0Z" transform="translate(36.097 10.796)" fill="none" stroke="#fafafa" stroke-width="1"/>
    <ellipse id="楕円形_4" data-name="楕円形 4" cx="1.007" cy="1.893" rx="1.007" ry="1.893" transform="translate(38.427 11.961)" fill="#fff"/>
    <path id="パス_13" data-name="パス 13" d="M102.984,21.04,99.49,24.534l4.076,1.747" transform="translate(-41.556 -8.788)" fill="none" stroke="#fafafa" stroke-miterlimit="10" stroke-width="2"/>
    <line id="線_6" data-name="線 6" x2="5.823" transform="translate(45.414 17.784)" fill="none" stroke="#fafafa" stroke-miterlimit="10" stroke-width="3"/>
  </g>
</svg>
