<svg xmlns="http://www.w3.org/2000/svg" viewBox="0 0 266.53 65.04"><defs><style>.cls-1{fill:none;stroke-width:3px;}.cls-1,.cls-2,.cls-4{stroke:#000;stroke-miterlimit:10;}.cls-3,.cls-4{fill:#fff;}.cls-4{stroke-width:2px;}</style></defs><title>アセット 4</title><g id="レイヤー_2" data-name="レイヤー 2"><g id="レイヤー_1-2" data-name="レイヤー 1"><path d="M19.79,50.59A59.93,59.93,0,0,1,9.15,49.52Q.93,48,.93,45.37c0-.28.55-.83,1.64-1.64a3.74,3.74,0,0,0,1.65-3.14V9.5c0-.85-.72-1.5-2.15-1.93S0,6.34,0,5.43c0-.67.44-1.26,1.32-1.79A15.4,15.4,0,0,1,4.68,2.25a41.74,41.74,0,0,1,4.5-1C10.83.93,12.4.7,13.9.54s2.84-.3,4-.4S20,0,20.44,0a36.16,36.16,0,0,1,6.14.54,19.5,19.5,0,0,1,5.79,1.89A12.51,12.51,0,0,1,36.69,6a9,9,0,0,1,1.68,5.58,8.33,8.33,0,0,1-.68,3.32,11.89,11.89,0,0,1-1.78,3,12.46,12.46,0,0,1-2.61,2.4,13.4,13.4,0,0,1-3.15,1.61v.85a33.92,33.92,0,0,1,3.9,2,15.08,15.08,0,0,1,3.32,2.61,12.49,12.49,0,0,1,2.32,3.43,10.16,10.16,0,0,1,.9,4.35,17,17,0,0,1-1.4,7.26,11.81,11.81,0,0,1-4,4.79,18.08,18.08,0,0,1-6.51,2.64A42.62,42.62,0,0,1,19.79,50.59ZM17.94,23.22c0-.33.42-.79,1.28-1.39a28.72,28.72,0,0,1,3.43-2A7.71,7.71,0,0,0,26,16.76a8.75,8.75,0,0,0,1-4.26,9.87,9.87,0,0,0-.36-2.6,8.92,8.92,0,0,0-1-2.4,5.65,5.65,0,0,0-1.79-1.75,4.93,4.93,0,0,0-2.61-.68,6.93,6.93,0,0,0-4,1.18,3.81,3.81,0,0,0-1.71,3.32V41.23a3,3,0,0,0,.57,1.89,4.35,4.35,0,0,0,1.46,1.22,7.64,7.64,0,0,0,2,.68,10.69,10.69,0,0,0,2.07.21A7.3,7.3,0,0,0,25,44.48a6.74,6.74,0,0,0,2.36-2,8.58,8.58,0,0,0,1.36-3,16.08,16.08,0,0,0,.42-3.75A10,10,0,0,0,27.69,30a9.38,9.38,0,0,0-4-3.36q-2.92-1.35-4.36-2.11C18.41,24,17.94,23.6,17.94,23.22Z"/><path d="M42.8,30.51a24,24,0,0,1,1.29-8,18.23,18.23,0,0,1,3.75-6.36A17.39,17.39,0,0,1,53.91,12a20.84,20.84,0,0,1,8.26-1.54A21.09,21.09,0,0,1,70.46,12a17.37,17.37,0,0,1,6.11,4.21,18.23,18.23,0,0,1,3.75,6.36,24.22,24.22,0,0,1,1.28,8,24.38,24.38,0,0,1-1.28,8,18.23,18.23,0,0,1-3.75,6.36,17.39,17.39,0,0,1-6.11,4.22,21.27,21.27,0,0,1-8.29,1.53,21,21,0,0,1-8.26-1.53,17.41,17.41,0,0,1-6.07-4.22,18.23,18.23,0,0,1-3.75-6.36A24.12,24.12,0,0,1,42.8,30.51Zm29.66-.14A31.69,31.69,0,0,0,72,24.8a17.79,17.79,0,0,0-1.68-5,10.14,10.14,0,0,0-3.18-3.65,8.43,8.43,0,0,0-4.93-1.39,8.05,8.05,0,0,0-4.86,1.39,10.35,10.35,0,0,0-3.11,3.65,17.19,17.19,0,0,0-1.68,5,31.69,31.69,0,0,0-.5,5.57,34,34,0,0,0,.5,5.79,17.25,17.25,0,0,0,1.68,5.11A10.73,10.73,0,0,0,57.31,45a7.94,7.94,0,0,0,4.86,1.43A8.3,8.3,0,0,0,67.1,45a10.37,10.37,0,0,0,3.18-3.72A18.27,18.27,0,0,0,72,36.12a32.4,32.4,0,0,0,.5-5.61Z"/><path d="M83.46,30.51a24,24,0,0,1,1.29-8,18.07,18.07,0,0,1,3.75-6.36A17.39,17.39,0,0,1,94.57,12a23,23,0,0,1,16.54,0,17.28,17.28,0,0,1,6.11,4.21A18.1,18.1,0,0,1,121,22.54a24.22,24.22,0,0,1,1.28,8,24.38,24.38,0,0,1-1.28,8,18.1,18.1,0,0,1-3.76,6.36,17.3,17.3,0,0,1-6.11,4.22,23.12,23.12,0,0,1-16.54,0,17.41,17.41,0,0,1-6.07-4.22,18.07,18.07,0,0,1-3.75-6.36A24.12,24.12,0,0,1,83.46,30.51Zm29.66-.14a31.69,31.69,0,0,0-.5-5.57,17.79,17.79,0,0,0-1.68-5,10.14,10.14,0,0,0-3.18-3.65,8.43,8.43,0,0,0-4.93-1.39A8.05,8.05,0,0,0,98,16.11a10.25,10.25,0,0,0-3.11,3.65,17.19,17.19,0,0,0-1.68,5,31.69,31.69,0,0,0-.5,5.57,34,34,0,0,0,.5,5.79,17.25,17.25,0,0,0,1.68,5.11A10.62,10.62,0,0,0,98,45a7.94,7.94,0,0,0,4.86,1.43A8.3,8.3,0,0,0,107.76,45a10.37,10.37,0,0,0,3.18-3.72,18.27,18.27,0,0,0,1.68-5.11,32.4,32.4,0,0,0,.5-5.61Z"/><path d="M125.91,50.09c-1,0-1.43-.52-1.43-1.57,0-.67.59-1.17,1.78-1.5A2.23,2.23,0,0,0,128,44.87V15.79a2.23,2.23,0,0,0-1.72-2.14c-1.19-.33-1.78-.86-1.78-1.57,0-1,.47-1.5,1.43-1.5H139.2c1,0,1.43.5,1.43,1.5,0,.66-.6,1.16-1.79,1.5a2.29,2.29,0,0,0-1.79,2.21V44.87A2.26,2.26,0,0,0,138.84,47c1.19.33,1.79.83,1.79,1.5,0,1-.48,1.57-1.43,1.57Zm27.51,0a3,3,0,0,1-2.08-.71A38.65,38.65,0,0,1,147.06,44c-.57-.81-1.36-2-2.36-3.4s-2-2.93-3-4.43-1.87-2.89-2.61-4.18A7.15,7.15,0,0,1,138,29.37a3.92,3.92,0,0,1,.79-1.39c.52-.74,1.18-1.6,2-2.58s1.63-2,2.54-3.11,1.74-2.13,2.5-3.1,1.39-1.83,1.9-2.54a3.63,3.63,0,0,0,.75-1.43c0-.76-.53-1.31-1.58-1.64s-1.57-1-1.57-1.58c0-1,.48-1.5,1.43-1.5h10.93c1,0,1.43.5,1.43,1.5-.43.48-1.08,1.25-2,2.33s-1.8,2.08-2.75,3q-2.79,2.72-4.72,5a54.81,54.81,0,0,0-3.36,4.35q2.92,4.37,4.82,7.19c1.27,1.88,2.35,3.49,3.26,4.82s1.69,2.48,2.35,3.43,1.36,2,2.08,3a5.48,5.48,0,0,0,2.71,1.72c1.14.52,1.72,1.07,1.72,1.64a1.37,1.37,0,0,1-.54,1.18,2.31,2.31,0,0,1-1.39.39Z"/><path d="M178.57,24.58a6.56,6.56,0,0,0,2.5.5,17.81,17.81,0,0,0,1.79-.11c.76-.07,1.38-.1,1.85-.1a5.3,5.3,0,0,1,2.54.53,2.07,2.07,0,0,1,1,2,2,2,0,0,1-1,1.93,6.23,6.23,0,0,1-2.72.5c-.9,0-1.74,0-2.5-.11l-1.22-.11a5.09,5.09,0,0,0-1.46.29c-.6.19-.89.69-.89,1.5v12.5c0,1,.2,1.58.6,1.72a7.07,7.07,0,0,0,1.75.29c.86,0,1.92.08,3.18.1s2.49,0,3.68,0a9.39,9.39,0,0,0,2.72-.54A5.93,5.93,0,0,0,192.58,44c.71-.72,1.32-1.29,1.82-1.72s.82-.64,1-.64a1.68,1.68,0,0,1,1.15.25,1.06,1.06,0,0,1,.5,1,4,4,0,0,1-.29,1.15c-.19.52-.43,1.1-.72,1.75s-.59,1.27-.92,1.89a8.89,8.89,0,0,1-.93,1.43,2.68,2.68,0,0,1-1.32.79,6.09,6.09,0,0,1-1,.21H167.21a1.25,1.25,0,0,1-1.07-.46,2,2,0,0,1-.36-1.25.87.87,0,0,1,.57-.79c.38-.19.79-.38,1.22-.57a4.74,4.74,0,0,0,1.21-.79,1.8,1.8,0,0,0,.57-1.43v-29a1.73,1.73,0,0,0-.57-1.36,7.56,7.56,0,0,0-1.21-.85l-1.22-.68a1,1,0,0,1-.57-.9c0-1,.47-1.5,1.43-1.5h23.36a2.69,2.69,0,0,1,1.61.54,6,6,0,0,1,1.36,1.39,8.38,8.38,0,0,1,1,1.93,6.27,6.27,0,0,1,.39,2.15,1.39,1.39,0,0,1-.18.57,1.45,1.45,0,0,1-.46.57,1.69,1.69,0,0,1-.64.29,1,1,0,0,1-.79-.29c-1.1-.86-2-1.51-2.61-2a7.93,7.93,0,0,0-2-1,9.59,9.59,0,0,0-2.54-.43c-1-.05-2.3-.07-4-.07a4.24,4.24,0,0,0-2.68.57,2.07,2.07,0,0,0-.6,1.57c0,1.86,0,3.32,0,4.4s0,1.88,0,2.43,0,.91,0,1.1A2.78,2.78,0,0,1,178.57,24.58Z"/><path d="M228.37,50.09q-2.2,0-7.86-8.15-5.43-8.07-5.43-10.64,0-.93,3.93-2.5a5.39,5.39,0,0,0,2.93-2.61,9.59,9.59,0,0,0,.93-4.4,9.86,9.86,0,0,0-.32-2.53,7,7,0,0,0-1-2.25,5.61,5.61,0,0,0-1.71-1.65,5.14,5.14,0,0,0-2.47-.71,7.15,7.15,0,0,0-1.71.21,6.32,6.32,0,0,0-1.61.65,3.73,3.73,0,0,0-1.22,1.07,2.37,2.37,0,0,0-.46,1.43V44.8A2.26,2.26,0,0,0,214.15,47c1.2.43,1.79.95,1.79,1.57,0,1-.48,1.57-1.43,1.57H201c-1,0-1.43-.52-1.43-1.57,0-.67.59-1.17,1.78-1.5a2.31,2.31,0,0,0,1.86-2.22V18q0-.93-1.71-1.5c-1.15-.34-1.72-.91-1.72-1.72,0-.47.38-.93,1.15-1.36a12.32,12.32,0,0,1,2.89-1.1c1.17-.31,2.44-.59,3.82-.83s2.73-.44,4-.6,2.46-.29,3.47-.36,1.69-.11,2.07-.11a22.59,22.59,0,0,1,5.36.65,15.85,15.85,0,0,1,4.75,2,10.8,10.8,0,0,1,3.43,3.43,9.33,9.33,0,0,1,1.32,5,8,8,0,0,1-.64,3.39,9.3,9.3,0,0,1-1.75,2.54,15.65,15.65,0,0,1-2.58,2.11c-1,.64-2,1.34-3,2.1a27.11,27.11,0,0,0,5.07,9.08,22.75,22.75,0,0,0,4,3.89c1.38,1,2.65,2,3.79,2.76a1.63,1.63,0,0,1,.79,1,1.16,1.16,0,0,1-.22.86,2.08,2.08,0,0,1-.82.64,2.29,2.29,0,0,1-1,.25Z"/><path d="M253.17,50.45a8.94,8.94,0,0,1-1.75-.25l-2.32-.54c-.81-.19-1.58-.34-2.29-.46a3.65,3.65,0,0,0-1.5,0A2.57,2.57,0,0,0,244,50a1.53,1.53,0,0,1-1.18.64c-.57,0-1.09-.4-1.54-1.21a12.1,12.1,0,0,1-1.1-2.82,29.72,29.72,0,0,1-.68-3.15,15.13,15.13,0,0,1-.25-2.18,1.19,1.19,0,0,1,.25-.75,2,2,0,0,1,.6-.53,1.58,1.58,0,0,1,.68-.25.45.45,0,0,1,.47.17A14.56,14.56,0,0,0,245.85,44,12.8,12.8,0,0,0,251,45.73a6.88,6.88,0,0,0,4.28-.86,3.83,3.83,0,0,0,1.79-3.57,7.33,7.33,0,0,0-.57-3A7.84,7.84,0,0,0,254.92,36a13.56,13.56,0,0,0-2.43-1.9c-.93-.57-1.92-1.19-3-1.85-2-1.19-3.59-2.28-4.9-3.25a20.47,20.47,0,0,1-3.18-2.86,9.31,9.31,0,0,1-1.75-2.83,9.21,9.21,0,0,1-.54-3.28,8.83,8.83,0,0,1,.86-3.86,9,9,0,0,1,2.4-3.07,11.58,11.58,0,0,1,3.64-2,13.63,13.63,0,0,1,4.61-.75,11.29,11.29,0,0,1,1.57.14l1.93.32,2,.36c.64.12,1.2.2,1.67.25a.73.73,0,0,0,.58-.11,2.24,2.24,0,0,0,.53-.46c.17-.19.33-.37.5-.54a3.71,3.71,0,0,1,.47-.39c.52,0,1,.35,1.5,1.18a16.73,16.73,0,0,1,1.25,2.82,28.77,28.77,0,0,1,.86,3,12.51,12.51,0,0,1,.32,1.89q0,1.65-1.5,1.65c-.81-.72-1.6-1.4-2.36-2a22.83,22.83,0,0,0-2.36-1.75,10.47,10.47,0,0,0-2.75-1.29,8.37,8.37,0,0,0-3.07-.39,4.2,4.2,0,0,0-2.5,1,3.6,3.6,0,0,0-1,2.89,2.76,2.76,0,0,0,.79,1.83,12.51,12.51,0,0,0,2.07,1.82c.86.62,1.81,1.25,2.86,1.89s2,1.28,3,1.9a32,32,0,0,1,3.5,2.6,23,23,0,0,1,3.07,3.18,15.66,15.66,0,0,1,2.18,3.68,10.51,10.51,0,0,1,.82,4.11q0,5.3-3.57,7.93T253.17,50.45Z"/><path class="cls-1" d="M61,53.54s6,10,21,10c16,0,24-7,24-7l-1,6"/><ellipse class="cls-2" cx="65.99" cy="26.04" rx="4" ry="7.5"/><ellipse class="cls-3" cx="67.72" cy="23.79" rx="1.73" ry="3.25"/><polyline class="cls-4" points="105.49 21.04 99.49 27.04 106.49 30.04"/><line class="cls-1" x1="77.99" y1="30.54" x2="87.99" y2="30.54"/></g></g></svg>